<svg xmlns="http://www.w3.org/2000/svg" viewBox="0 0 536 512"><!--!Font Awesome Free 6.7.2 by @fontawesome - https://fontawesome.com License - https://fontawesome.com/license/free Copyright 2025 Fonticons, Inc.--><path d="M508.6 171.5L362.2 150.2 296.8 17.8C290.9 6 279.4 0 268 0c-11.4 0-22.8 5.9-28.7 17.8l-65.4 132.4-146.4 21.3c-26.3 3.8-36.8 36.1-17.7 54.6l105.9 103-25.1 145.5C87 495.3 103.6 512 122.2 512c4.9 0 10-1.2 14.9-3.8l131-68.7 130.9 68.7c4.9 2.6 9.9 3.7 14.8 3.7 18.6 0 35.2-16.6 31.7-37.4l-25-145.5 105.9-103c19-18.5 8.5-50.8-17.7-54.6zm-121.7 123.2l-18.1 17.6 4.3 24.9 19.5 113.5-102.1-53.6-22.4-11.7 0-317.2 51 103.3 11.2 22.6 25 3.6 114.2 16.6-82.7 80.4z"/></svg>